HIERARCHY
ROOT Hips
{
	OFFSET 0.000000 0.000000 0.000000
	CHANNELS 6 Xposition Yposition Zposition Xrotation Yrotation Zrotation
	JOINT LeftUpLeg_virtual
	{
		OFFSET 0.000000 0.000000 0.000000
		CHANNELS 3 Xrotation Yrotation Zrotation
		JOINT LeftUpLeg
		{
			OFFSET 13.026900 -6.336304 -1.092800
			CHANNELS 3 Xrotation Yrotation Zrotation
			JOINT LeftLeg
			{
				OFFSET 0.524474 -46.096886 9.782700
				CHANNELS 3 Xrotation Yrotation Zrotation
				JOINT LeftFoot
				{
					OFFSET -0.524474 -53.427422 -12.948200
					CHANNELS 3 Xrotation Yrotation Zrotation
					JOINT LeftToeBase
					{
						OFFSET 0.192200 -14.009700 16.364100
						CHANNELS 3 Xrotation Yrotation Zrotation
						JOINT LeftToe_End
						{
							OFFSET -1.784700 -0.561700 9.474800
							CHANNELS 3 Xrotation Yrotation Zrotation
							End Site
							{
								OFFSET 0 0 0
							}
						}
					}
				}
			}
		}
	}
	JOINT RightUpLeg_virtual
	{
		OFFSET 0.000000 0.000000 0.000000
		CHANNELS 3 Xrotation Yrotation Zrotation
		JOINT RightUpLeg
		{
			OFFSET -12.883000 -6.336304 -1.092800
			CHANNELS 3 Xrotation Yrotation Zrotation
			JOINT RightLeg
			{
				OFFSET -0.524587 -46.096825 9.782800
				CHANNELS 3 Xrotation Yrotation Zrotation
				JOINT RightFoot
				{
					OFFSET 0.524587 -53.427383 -12.948300
					CHANNELS 3 Xrotation Yrotation Zrotation
					JOINT RightToeBase
					{
						OFFSET -0.192200 -14.009700 16.364100
						CHANNELS 3 Xrotation Yrotation Zrotation
						JOINT RightToe_End
						{
							OFFSET 1.784700 -0.561700 9.474800
							CHANNELS 3 Xrotation Yrotation Zrotation
							End Site
							{
								OFFSET 0 0 0
							}
						}
					}
				}
			}
		}
	}
	JOINT Spine_virtual
	{
		OFFSET 0.000000 0.000000 0.000000
		CHANNELS 3 Xrotation Yrotation Zrotation
		JOINT Spine
		{
			OFFSET 0.072000 7.257294 -0.789700
			CHANNELS 3 Xrotation Yrotation Zrotation
			JOINT Spine1
			{
				OFFSET 0.000000 12.508769 -0.658067
				CHANNELS 3 Xrotation Yrotation Zrotation
				JOINT Spine1_split
				{
					OFFSET 0.000000 12.508769 -0.658067
					CHANNELS 3 Xrotation Yrotation Zrotation
					JOINT Spine2
					{
						OFFSET 0.000000 12.508769 -0.658067
						CHANNELS 3 Xrotation Yrotation Zrotation
						JOINT Neck_virtual
						{
							OFFSET 0.000000 0.000000 0.000000
							CHANNELS 3 Xrotation Yrotation Zrotation
							JOINT Neck
							{
								OFFSET 0.000000 14.033295 7.520400
								CHANNELS 3 Xrotation Yrotation Zrotation
								JOINT Head
								{
									OFFSET 0.000000 8.198502 5.703100
									CHANNELS 3 Xrotation Yrotation Zrotation
									JOINT HeadTop_End
									{
										OFFSET 0.000000 17.760803 13.332701
										CHANNELS 3 Xrotation Yrotation Zrotation
										End Site
										{
											OFFSET 0 0 0
										}
									}
								}
							}
						}
						JOINT LeftShoulder_virtual
						{
							OFFSET 0.000000 0.000000 0.000000
							CHANNELS 3 Xrotation Yrotation Zrotation
							JOINT LeftShoulder
							{
								OFFSET 6.292450 5.785301 -0.669000
								CHANNELS 3 Xrotation Yrotation Zrotation
								JOINT LeftShoulder_split
								{
									OFFSET 6.292450 5.785301 -0.669000
									CHANNELS 3 Xrotation Yrotation Zrotation
									JOINT LeftArm
									{
										OFFSET 13.907140 -6.093903 1.965100
										CHANNELS 3 Xrotation Yrotation Zrotation
										JOINT LeftForeArm
										{
											OFFSET 34.140198 0.000000 0.000000
											CHANNELS 3 Xrotation Yrotation Zrotation
											JOINT LeftHand
											{
												OFFSET 40.960209 0.000000 0.000000
												CHANNELS 3 Xrotation Yrotation Zrotation
												End Site
												{
													OFFSET 0 0 0
												}
											}
										}
									}
								}
							}
						}
						JOINT RightShoulder_virtual
						{
							OFFSET 0.000000 0.000000 0.000000
							CHANNELS 3 Xrotation Yrotation Zrotation
							JOINT RightShoulder
							{
								OFFSET -6.292450 5.785301 -0.669000
								CHANNELS 3 Xrotation Yrotation Zrotation
								JOINT RightShoulder_split
								{
									OFFSET -6.292450 5.785301 -0.669000
									CHANNELS 3 Xrotation Yrotation Zrotation
									JOINT RightArm
									{
										OFFSET -13.907140 -6.093903 1.965100
										CHANNELS 3 Xrotation Yrotation Zrotation
										JOINT RightForeArm
										{
											OFFSET -34.140198 0.000000 0.000000
											CHANNELS 3 Xrotation Yrotation Zrotation
											JOINT RightHand
											{
												OFFSET -40.960209 0.000000 0.000000
												CHANNELS 3 Xrotation Yrotation Zrotation
												End Site
												{
													OFFSET 0 0 0
												}
											}
										}
									}
								}
							}
						}
					}
				}
			}
		}
	}
}
MOTION
Frames: 9
Frame Time: 0.03333333
-5.694078 98.290016 2.602058 0.000000 0.000000 0.000000 -8.930290 23.621593 9.306783 -32.606080 -11.428899 4.790462 40.664901 0.390498 1.428119 -4.526867 -6.619261 -17.058437 -0.088911 -0.293937 0.004080 0.000000 0.000000 0.000000 -8.683897 22.380170 9.268040 -9.825805 -27.218893 -25.430411 48.454779 2.311408 1.808712 -32.793224 -6.932950 12.355548 -2.231425 0.380905 -0.060153 0.000000 0.000000 0.000000 -8.126198 29.315691 9.374120 17.103111 -0.807953 3.169575 4.087636 1.605147 -1.487707 6.913316 4.686068 1.702483 0.000000 0.000000 0.000000 3.680378 0.319993 -1.205787 -13.559107 -13.717011 -5.784262 -22.637214 -9.956280 -4.086252 0.000000 0.000000 0.000000 4.350722 1.169696 -1.074183 0.661133 -12.054681 -22.693689 -7.388625 -0.969416 -4.058584 -3.745324 6.437461 -24.213608 54.988108 -63.148364 22.788255 0.000000 0.000000 0.000000 4.932826 0.031951 -1.831140 4.661275 -10.656954 -3.521538 -10.249047 -0.166501 5.163287 -62.022250 -11.181192 2.624443 -126.333815 15.759393 154.944426 0.000000 0.000000 0.000000 
-5.941475 98.331940 3.027214 0.000000 0.000000 0.000000 -8.808566 23.337575 8.706899 -32.947429 -12.728357 5.232189 40.277871 0.122397 1.511287 -4.325970 -6.263756 -17.791132 0.271814 -0.210326 -0.046493 0.000000 0.000000 0.000000 -8.365739 22.432821 8.716692 -8.292682 -27.382765 -23.713882 47.247386 2.034826 1.815121 -33.046433 -7.616645 11.970458 -2.167832 0.398964 -0.013901 0.000000 0.000000 0.000000 -8.091583 29.458596 8.562029 16.797896 -1.516753 2.966401 3.670412 0.178928 -1.669896 5.798733 2.358569 2.561236 0.000000 0.000000 0.000000 3.464475 -1.060340 -1.090377 -14.204083 -10.806702 -7.368121 -22.950686 -8.517277 -2.734422 0.000000 0.000000 0.000000 4.008102 -0.259066 -0.976917 0.949473 -9.744459 -23.193002 -8.314686 -0.615367 -4.005945 -1.930028 10.955687 -25.373980 59.579556 -64.119897 27.491383 0.000000 0.000000 0.000000 4.413453 -1.302406 -1.661898 5.160079 -12.699084 3.263505 -9.023072 0.092057 5.416543 -63.549992 -23.852332 0.114437 -120.826852 10.965958 151.368562 0.000000 0.000000 0.000000 
-6.096340 98.628914 3.374195 0.000000 0.000000 0.000000 -8.305339 22.217084 7.850213 -32.790003 -13.374435 6.035191 40.190769 0.027619 1.483253 -4.674508 -5.461016 -18.165964 0.298716 -0.133772 -0.088615 0.000000 0.000000 0.000000 -7.784596 21.568100 7.914103 -7.441904 -26.725934 -21.958013 45.655074 1.829683 1.742210 -32.840683 -8.271959 11.376159 -1.939669 0.429232 0.049631 0.000000 0.000000 0.000000 -7.704041 28.838619 7.512356 16.720981 -1.902930 2.929086 3.308865 -1.050942 -1.687664 3.180266 -1.086114 2.210003 0.000000 0.000000 0.000000 3.589695 -2.223665 -0.856974 -14.655214 -8.659243 -6.907832 -23.371193 -6.845076 -1.820386 0.000000 0.000000 0.000000 3.895293 -1.450854 -0.808853 1.190913 -8.205122 -22.751971 -9.061920 -0.350804 -3.760042 -0.390334 13.859038 -26.781496 60.223492 -62.775811 27.972232 0.000000 0.000000 0.000000 3.916782 -2.460562 -1.406291 5.633019 -13.382954 7.913087 -7.589829 -0.706563 5.327234 -68.033424 -28.879915 -0.297879 -116.384921 7.877503 148.491823 0.000000 0.000000 0.000000 
-6.080280 99.145042 3.545452 0.000000 0.000000 0.000000 -7.536210 20.412387 6.877849 -32.120904 -13.221977 7.118821 40.518175 0.093871 1.340390 -5.523448 -4.340653 -18.086228 -0.030138 -0.071949 -0.097099 0.000000 0.000000 0.000000 -6.979744 19.852665 6.982952 -7.556742 -25.349585 -20.409628 43.941045 1.785604 1.571657 -32.005334 -8.760157 10.864028 -1.845802 0.454618 0.124482 0.000000 0.000000 0.000000 -7.016725 27.208673 6.386048 16.919987 -1.930933 3.045209 3.047435 -1.864899 -1.641162 0.844098 -3.444997 0.949485 0.000000 0.000000 0.000000 3.984871 -2.948319 -0.677882 -14.825286 -7.258323 -4.990639 -24.052299 -5.106091 -1.302272 0.000000 0.000000 0.000000 3.947141 -2.175175 -0.691229 1.320203 -7.327643 -21.446569 -9.260917 -0.261487 -3.687463 0.343755 15.325951 -27.917012 58.445143 -60.639772 26.102244 0.000000 0.000000 0.000000 3.459258 -3.256660 -1.228531 5.795211 -13.409395 10.041222 -5.730685 -1.041797 4.848509 -73.838300 -28.107709 0.159449 -115.181387 5.776301 148.091028 0.000000 0.000000 0.000000 
-5.902857 99.837006 3.492012 0.000000 0.000000 0.000000 -6.621847 18.179457 5.903432 -31.116457 -12.281246 8.344637 41.065406 0.244534 1.090246 -6.725543 -3.133342 -17.588441 -0.492049 -0.026905 -0.069417 0.000000 0.000000 0.000000 -6.087491 17.544893 6.045596 -8.608728 -23.465248 -19.247611 42.526206 1.892254 1.343792 -30.543137 -8.974171 10.494774 -1.981247 0.460079 0.195842 0.000000 0.000000 0.000000 -6.183012 24.777964 5.405826 17.384208 -1.708942 3.235006 2.856215 -2.120084 -1.610504 -0.117430 -3.674261 -0.004708 0.000000 0.000000 0.000000 4.441978 -3.101736 -0.696811 -14.582099 -6.525505 -2.539947 -25.015447 -3.506554 -1.045886 0.000000 0.000000 0.000000 4.096896 -2.331268 -0.711537 1.345375 -6.870424 -19.834150 -8.862612 -0.285287 -3.582647 0.466597 15.835700 -28.668493 56.675581 -59.227234 24.510530 0.000000 0.000000 0.000000 3.202435 -3.558921 -1.205064 5.773126 -13.240101 9.939066 -4.123208 -0.734130 4.568934 -78.945253 -24.080228 0.801971 -117.336134 4.549961 150.368227 0.000000 0.000000 0.000000 
-5.610540 100.649139 3.225231 0.000000 0.000000 0.000000 -5.721851 15.910763 5.074975 -29.946763 -10.761908 9.529566 41.452606 0.402707 0.758344 -8.073372 -2.082657 -16.797566 -0.792155 0.004181 -0.029177 0.000000 0.000000 0.000000 -5.284092 15.017206 5.253507 -10.346149 -21.309193 -18.487584 41.684443 2.063250 1.093186 -28.659747 -8.957074 10.248847 -2.252446 0.440446 0.270984 0.000000 0.000000 0.000000 -5.347051 21.795045 4.700759 17.945149 -1.390798 3.369315 2.738697 -1.862522 -1.611020 -0.058520 -3.040496 -0.468212 0.000000 0.000000 0.000000 4.801891 -2.744451 -0.905624 -13.941538 -6.194646 -0.367207 -26.224011 -2.316506 -0.969702 0.000000 0.000000 0.000000 4.263099 -1.980982 -0.858637 1.217398 -6.696630 -18.295276 -7.973142 -0.370542 -3.561676 -0.014085 15.982738 -29.163361 55.689001 -59.103765 24.043915 0.000000 0.000000 0.000000 3.127727 -3.341678 -1.298691 5.734526 -13.064001 8.641483 -3.639260 -0.263164 5.010496 -81.952742 -19.307080 1.680769 -120.849365 4.366129 153.732122 0.000000 0.000000 0.000000 
-5.261817 101.418823 2.753468 0.000000 0.000000 0.000000 -5.028470 13.942908 4.451927 -28.727981 -8.949970 10.569172 41.341957 0.399707 0.431490 -9.276076 -1.446536 -16.007506 -0.882102 0.026949 -0.009154 0.000000 0.000000 0.000000 -4.683032 12.687703 4.664127 -12.295929 -19.109836 -18.077842 41.655661 2.144618 0.853135 -26.647479 -8.834606 10.111108 -2.483685 0.387906 0.337996 0.000000 0.000000 0.000000 -4.674533 18.743654 4.355751 18.419168 -1.161466 3.325234 2.668181 -1.283556 -1.613444 0.841583 -2.272624 -0.184225 0.000000 0.000000 0.000000 4.953879 -2.051951 -1.157205 -13.122876 -5.993917 0.919686 -27.615867 -1.790510 -0.929020 0.000000 0.000000 0.000000 4.394982 -1.366603 -1.030532 0.987678 -6.723607 -17.326535 -7.087707 -0.199095 -3.685781 -0.829846 15.920097 -29.360637 55.612626 -59.820340 24.614322 0.000000 0.000000 0.000000 3.163244 -2.727731 -1.380916 5.800942 -12.839910 7.389249 -4.168009 0.310799 6.378860 -82.992549 -15.980314 1.818445 -124.295960 5.270759 156.892464 0.000000 0.000000 0.000000 
-4.892047 102.049881 2.201588 0.000000 0.000000 0.000000 -4.596849 12.395974 4.084439 -27.615681 -7.151350 11.377971 40.775003 0.188943 0.186104 -10.055027 -1.291359 -15.464899 -0.816336 0.041360 -0.028737 0.000000 0.000000 0.000000 -4.388081 10.796298 4.299080 -13.977769 -17.098264 -17.934128 42.338222 2.076641 0.642858 -24.835550 -8.694824 10.089419 -2.550522 0.326351 0.364223 0.000000 0.000000 0.000000 -4.289539 16.135289 4.368204 18.679258 -1.188633 3.045769 2.641639 -0.642771 -1.586535 1.372534 -1.691439 0.449200 0.000000 0.000000 0.000000 4.912510 -1.311823 -1.293447 -12.330824 -5.776808 1.104838 -28.850565 -1.855441 -0.938559 0.000000 0.000000 0.000000 4.506738 -0.746211 -1.153431 0.709403 -6.949549 -17.112245 -6.595728 0.275969 -3.658025 -1.603076 15.618011 -29.422689 55.271031 -60.116115 24.895256 0.000000 0.000000 0.000000 3.258569 -1.936304 -1.329598 6.061403 -12.469213 6.922089 -5.683001 0.297342 8.445853 -82.286991 -15.127156 1.909392 -127.015550 7.528076 159.202762 0.000000 0.000000 0.000000 
-4.551039 102.475189 1.764606 0.000000 0.000000 0.000000 -4.511700 11.346332 3.939293 -26.669018 -5.582404 11.924325 40.004032 -0.131015 0.072820 -10.305482 -1.510461 -15.201040 -0.650764 0.049048 -0.119902 0.000000 0.000000 0.000000 -4.388632 9.498818 4.136061 -15.035529 -15.436385 -17.944300 43.308812 1.881300 0.451556 -23.516307 -8.609489 10.294015 -2.440690 0.282382 0.339541 0.000000 0.000000 0.000000 -4.255828 14.185231 4.597263 18.654271 -1.509799 2.547870 2.710098 -0.169235 -1.489456 1.638790 -1.395465 0.840479 0.000000 0.000000 0.000000 4.766105 -0.750255 -1.221992 -11.782284 -5.361926 0.366813 -29.678408 -2.440826 -0.960995 0.000000 0.000000 0.000000 4.619572 -0.351471 -1.143645 0.427382 -7.383518 -17.397412 -6.666974 0.769442 -3.793095 -2.461570 14.762930 -29.330185 53.607781 -59.001640 23.764446 0.000000 0.000000 0.000000 3.334772 -1.250419 -1.084835 6.475671 -11.860283 7.464818 -7.287984 0.202961 10.040309 -80.301742 -16.393559 2.652862 -129.405529 11.183294 160.916634 0.000000 0.000000 0.000000 
